<svg width="12" height="10" viewBox="0 0 12 10" fill="none" xmlns="http://www.w3.org/2000/svg">
<path fill-rule="evenodd" clip-rule="evenodd" d="M0 1.00016C0 0.631973 0.298477 0.333496 0.666667 0.333496H11.3333C11.7015 0.333496 12 0.631973 12 1.00016C12 1.36835 11.7015 1.66683 11.3333 1.66683H0.666667C0.298477 1.66683 0 1.36835 0 1.00016ZM0 5.00016C0 4.63197 0.298477 4.3335 0.666667 4.3335H11.3333C11.7015 4.3335 12 4.63197 12 5.00016C12 5.36835 11.7015 5.66683 11.3333 5.66683H0.666667C0.298477 5.66683 0 5.36835 0 5.00016ZM0 9.00016C0 8.63197 0.298477 8.3335 0.666667 8.3335H5.33333C5.70152 8.3335 6 8.63197 6 9.00016C6 9.36835 5.70152 9.66683 5.33333 9.66683H0.666667C0.298477 9.66683 0 9.36835 0 9.00016Z" fill="#0F172A"/>
</svg>
