<svg width="24" height="6" viewBox="0 0 24 6" fill="none" xmlns="http://www.w3.org/2000/svg">
<path fill-rule="evenodd" clip-rule="evenodd" d="M0 2.99967C0 1.52691 1.19391 0.333008 2.66667 0.333008C4.13943 0.333008 5.33333 1.52691 5.33333 2.99967C5.33333 4.47243 4.13943 5.66634 2.66667 5.66634C1.19391 5.66634 0 4.47243 0 2.99967ZM9.33333 2.99967C9.33333 1.52691 10.5272 0.333008 12 0.333008C13.4728 0.333008 14.6667 1.52691 14.6667 2.99967C14.6667 4.47243 13.4728 5.66634 12 5.66634C10.5272 5.66634 9.33333 4.47243 9.33333 2.99967ZM18.6667 2.99967C18.6667 1.52691 19.8606 0.333008 21.3333 0.333008C22.8061 0.333008 24 1.52691 24 2.99967C24 4.47243 22.8061 5.66634 21.3333 5.66634C19.8606 5.66634 18.6667 4.47243 18.6667 2.99967Z" fill="#BDBDBD"/>
</svg>
