<svg width="12" height="11" viewBox="0 0 12 11" fill="none" xmlns="http://www.w3.org/2000/svg">
<path fill-rule="evenodd" clip-rule="evenodd" d="M0.400024 1.5002C0.400024 1.05837 0.758197 0.700195 1.20002 0.700195H10.8C11.2419 0.700195 11.6 1.05837 11.6 1.5002C11.6 1.94202 11.2419 2.3002 10.8 2.3002H1.20002C0.758197 2.3002 0.400024 1.94202 0.400024 1.5002Z" fill="white"/>
<path fill-rule="evenodd" clip-rule="evenodd" d="M0.400024 5.5002C0.400024 5.05837 0.758197 4.7002 1.20002 4.7002H10.8C11.2419 4.7002 11.6 5.05837 11.6 5.5002C11.6 5.94202 11.2419 6.3002 10.8 6.3002H1.20002C0.758197 6.3002 0.400024 5.94202 0.400024 5.5002Z" fill="white"/>
<path fill-rule="evenodd" clip-rule="evenodd" d="M0.400024 9.5002C0.400024 9.05837 0.758197 8.7002 1.20002 8.7002H10.8C11.2419 8.7002 11.6 9.05837 11.6 9.5002C11.6 9.94202 11.2419 10.3002 10.8 10.3002H1.20002C0.758197 10.3002 0.400024 9.94202 0.400024 9.5002Z" fill="white"/>
</svg>
