<svg width="14" height="14" viewBox="0 0 14 14" fill="none" xmlns="http://www.w3.org/2000/svg">
<path fill-rule="evenodd" clip-rule="evenodd" d="M9.00016 1.66732C7.15921 1.66732 5.66683 3.1597 5.66683 5.00065C5.66683 5.33854 5.71689 5.66352 5.80955 5.96923C5.88088 6.20459 5.81685 6.46011 5.64295 6.63401L1.66683 10.6101L1.66683 12.334H3.00016V11.6673C3.00016 11.2991 3.29864 11.0007 3.66683 11.0007H4.3335V10.334C4.3335 9.96579 4.63197 9.66732 5.00016 9.66732H6.05735L7.36681 8.35787C7.54071 8.18397 7.79622 8.11993 8.03158 8.19127C8.33729 8.28392 8.66228 8.33398 9.00016 8.33398C10.8411 8.33398 12.3335 6.8416 12.3335 5.00065C12.3335 3.1597 10.8411 1.66732 9.00016 1.66732ZM4.3335 12.334V13.0007C4.3335 13.3688 4.03502 13.6673 3.66683 13.6673H1.66683C0.93045 13.6673 0.333496 13.0704 0.333496 12.334V10.6101C0.333496 10.2565 0.473971 9.91737 0.72402 9.66732L4.43217 5.95917C4.36744 5.64936 4.3335 5.32868 4.3335 5.00065C4.3335 2.42332 6.42283 0.333984 9.00016 0.333984C11.5775 0.333984 13.6668 2.42332 13.6668 5.00065C13.6668 7.57798 11.5775 9.66732 9.00016 9.66732C8.67214 9.66732 8.35145 9.63337 8.04164 9.56865L6.8049 10.8054C6.67988 10.9304 6.51031 11.0007 6.3335 11.0007H5.66683V11.6673C5.66683 12.0355 5.36835 12.334 5.00016 12.334H4.3335ZM8.3335 3.66732C8.3335 3.29913 8.63197 3.00065 9.00016 3.00065C10.1047 3.00065 11.0002 3.89608 11.0002 5.00065C11.0002 5.36884 10.7017 5.66732 10.3335 5.66732C9.96531 5.66732 9.66683 5.36884 9.66683 5.00065C9.66683 4.63246 9.36835 4.33398 9.00016 4.33398C8.63197 4.33398 8.3335 4.03551 8.3335 3.66732Z" fill="#0F172A"/>
</svg>
