<svg width="14" height="14" viewBox="0 0 14 14" fill="none" xmlns="http://www.w3.org/2000/svg">
<path fill-rule="evenodd" clip-rule="evenodd" d="M5.39044 1.39124C6.2304 0.551291 7.66659 1.14618 7.66659 2.33405V11.6674C7.66659 12.8553 6.2304 13.4501 5.39044 12.6102L2.44763 9.66739H1.66659C0.930206 9.66739 0.333252 9.07043 0.333252 8.33405V5.66739C0.333252 4.93101 0.930206 4.33405 1.66659 4.33405H2.44763L5.39044 1.39124ZM6.33325 2.33405L3.19518 5.47212C3.07016 5.59715 2.90059 5.66739 2.72378 5.66739H1.66659V8.33405H2.72378C2.90059 8.33405 3.07016 8.40429 3.19518 8.52932L6.33325 11.6674V2.33405ZM9.86185 5.19595C10.1222 4.9356 10.5443 4.9356 10.8047 5.19595L11.6666 6.05788L12.5285 5.19595C12.7889 4.9356 13.211 4.9356 13.4713 5.19595C13.7317 5.4563 13.7317 5.87841 13.4713 6.13876L12.6094 7.00069L13.4713 7.86261C13.7317 8.12296 13.7317 8.54507 13.4713 8.80542C13.211 9.06577 12.7889 9.06577 12.5285 8.80542L11.6666 7.94349L10.8047 8.80542C10.5443 9.06577 10.1222 9.06577 9.86185 8.80542C9.6015 8.54507 9.6015 8.12296 9.86185 7.86261L10.7238 7.00069L9.86185 6.13876C9.6015 5.87841 9.6015 5.4563 9.86185 5.19595Z" fill="#0F172A"/>
</svg>
