<svg width="54" height="54" viewBox="0 0 54 54" fill="none" xmlns="http://www.w3.org/2000/svg">
<path fill-rule="evenodd" clip-rule="evenodd" d="M26.6667 5.37364C14.8846 5.37364 5.33333 14.9971 5.33333 26.8682C5.33333 38.7393 14.8846 48.3627 26.6667 48.3627C38.4487 48.3627 48 38.7393 48 26.8682C48 14.9971 38.4487 5.37364 26.6667 5.37364ZM0 26.8682C0 12.0293 11.9391 0 26.6667 0C41.3943 0 53.3333 12.0293 53.3333 26.8682C53.3333 41.7071 41.3943 53.7364 26.6667 53.7364C11.9391 53.7364 0 41.7071 0 26.8682ZM36.5523 19.5947C37.5937 20.6439 37.5937 22.3451 36.5523 23.3944L25.8856 34.1417C24.8442 35.191 23.1558 35.191 22.1144 34.1417L16.781 28.768C15.7397 27.7188 15.7397 26.0176 16.781 24.9683C17.8224 23.919 19.5109 23.919 20.5523 24.9683L24 28.4421L32.7811 19.5947C33.8224 18.5454 35.5109 18.5454 36.5523 19.5947Z" fill="#27AE60"/>
</svg>
