<svg width="38" height="38" viewBox="0 0 38 38" fill="none" xmlns="http://www.w3.org/2000/svg">
<path fill-rule="evenodd" clip-rule="evenodd" d="M0.781049 0.781049C1.82245 -0.26035 3.51089 -0.26035 4.55229 0.781049L18.6667 14.8954L32.7811 0.78105C33.8224 -0.260348 35.5109 -0.260348 36.5523 0.78105C37.5937 1.82245 37.5937 3.51089 36.5523 4.55229L22.4379 18.6667L36.5523 32.7811C37.5937 33.8224 37.5937 35.5109 36.5523 36.5523C35.5109 37.5937 33.8224 37.5937 32.781 36.5523L18.6667 22.4379L4.55229 36.5523C3.51089 37.5937 1.82245 37.5937 0.781049 36.5523C-0.26035 35.5109 -0.26035 33.8224 0.781049 32.7811L14.8954 18.6667L0.781049 4.55228C-0.26035 3.51089 -0.26035 1.82245 0.781049 0.781049Z" fill="#EB5757"/>
</svg>
