<svg width="26" height="26" viewBox="0 0 26 26" fill="none" xmlns="http://www.w3.org/2000/svg">
<path fill-rule="evenodd" clip-rule="evenodd" d="M19.2812 1C22.75 1 25 3.25 25 6.71876V19.2812C25 22.75 22.75 25 19.2812 25H6.71876C3.25 25 1 22.75 1 19.2812V6.71876C1 3.25 3.25 1 6.71876 1H19.2812Z" fill="white"/>
<path fill-rule="evenodd" clip-rule="evenodd" d="M19.2812 1C22.75 1 25 3.25 25 6.71876V19.2812C25 22.75 22.75 25 19.2812 25H6.71876C3.25 25 1 22.75 1 19.2812V6.71876C1 3.25 3.25 1 6.71876 1H19.2812Z" fill="white" stroke="#A4A4A4" stroke-width="0.5"/>
<path fill-rule="evenodd" clip-rule="evenodd" d="M10.7049 5.43722C8.76524 6.1021 7.11248 7.55624 6.1919 9.39646C5.87078 10.0313 5.63956 10.7048 5.49826 11.404C5.14716 13.1369 5.39122 14.9857 6.18762 16.5643C6.70572 17.5938 7.45074 18.5117 8.34992 19.2281C9.20198 19.9058 10.1911 20.412 11.2444 20.6908C12.5717 21.0469 13.9847 21.0383 15.3206 20.7337C16.5281 20.4549 17.6713 19.8758 18.5833 19.0351C19.5467 18.1471 20.2361 16.9804 20.6 15.7235C20.9982 14.3552 21.0496 12.8924 20.8014 11.4855C18.305 11.4855 15.8045 11.4855 13.3082 11.4855C13.3082 12.5235 13.3082 13.5616 13.3082 14.5997C14.7554 14.5997 16.2027 14.5997 17.6499 14.5997C17.4829 15.5949 16.892 16.5042 16.0571 17.0662C15.5304 17.4222 14.9267 17.6495 14.3016 17.7611C13.6764 17.8683 13.0256 17.8812 12.4005 17.7568C11.7625 17.6281 11.1587 17.3621 10.6278 16.989C9.78002 16.3927 9.13348 15.5219 8.80378 14.5396C8.46552 13.5402 8.46124 12.4292 8.80378 11.434C9.04356 10.7305 9.43748 10.0828 9.95986 9.55088C10.6021 8.8903 11.4371 8.41844 12.3405 8.22542C13.1112 8.06242 13.9248 8.09244 14.6784 8.31978C15.3206 8.51282 15.9115 8.86884 16.3953 9.33212C16.8835 8.84312 17.3716 8.3541 17.8597 7.8651C18.1166 7.60344 18.3864 7.35034 18.6347 7.0801C17.894 6.39378 17.0205 5.84042 16.0699 5.48868C14.3572 4.85384 12.4304 4.84096 10.7049 5.43722Z" fill="white"/>
<path fill-rule="evenodd" clip-rule="evenodd" d="M10.7054 5.43772C12.4266 4.84146 14.3577 4.85434 16.0704 5.4849C17.0209 5.83664 17.8901 6.3857 18.6352 7.07632C18.3868 7.34656 18.1171 7.59964 17.8602 7.8613C17.372 8.35032 16.8839 8.83932 16.3958 9.32832C15.912 8.86506 15.3211 8.51332 14.6788 8.316C13.9252 8.08866 13.1117 8.05434 12.341 8.22162C11.4418 8.41466 10.6069 8.8865 9.96032 9.5471C9.43796 10.0747 9.04402 10.7267 8.80426 11.4302C7.93506 10.7525 7.06586 10.079 6.19238 9.40126C7.11296 7.55674 8.76572 6.1026 10.7054 5.43772Z" fill="#EA4335"/>
<path fill-rule="evenodd" clip-rule="evenodd" d="M5.50291 11.4001C5.64421 10.7052 5.87543 10.0274 6.19657 9.39258C7.06575 10.0703 7.93495 10.7438 8.80843 11.4215C8.46589 12.421 8.46589 13.532 8.80843 14.5272C7.93923 15.2049 7.07005 15.8827 6.20085 16.5561C5.39587 14.9818 5.15181 13.1331 5.50291 11.4001Z" fill="#FBBC05"/>
<path fill-rule="evenodd" clip-rule="evenodd" d="M13.308 11.4814C15.8043 11.4814 18.3048 11.4814 20.8012 11.4814C21.0494 12.8841 20.9938 14.3469 20.5998 15.7195C20.2359 16.9763 19.5465 18.1431 18.5831 19.031C17.7396 18.3747 16.8961 17.7184 16.0526 17.0621C16.8875 16.5002 17.4784 15.5908 17.6454 14.5956C16.1982 14.5956 14.7509 14.5956 13.3037 14.5956C13.308 13.5576 13.308 12.5195 13.308 11.4814Z" fill="#4285F4"/>
<path fill-rule="evenodd" clip-rule="evenodd" d="M6.19238 16.5602C7.06158 15.8867 7.93078 15.209 8.79996 14.5312C9.13394 15.5136 9.7762 16.3843 10.624 16.9806C11.1549 17.3538 11.7629 17.6197 12.3966 17.7484C13.0218 17.8771 13.6683 17.8599 14.2977 17.7527C14.9229 17.6412 15.5266 17.4138 16.0533 17.0578C16.8968 17.7141 17.7403 18.3704 18.5838 19.0267C17.6718 19.8717 16.5285 20.4465 15.3211 20.7253C13.9852 21.0299 12.5722 21.0385 11.2449 20.6825C10.1915 20.4037 9.20246 19.9018 8.35038 19.2197C7.4555 18.5077 6.71048 17.5897 6.19238 16.5602Z" fill="#34A853"/>
</svg>
