<svg width="13" height="13" viewBox="0 0 13 13" fill="none" xmlns="http://www.w3.org/2000/svg">
<path fill-rule="evenodd" clip-rule="evenodd" d="M5.20047 1.83196C3.51349 1.83196 2.14593 3.19953 2.14593 4.88651C2.14593 6.57348 3.51349 7.94105 5.20047 7.94105C6.88745 7.94105 8.25502 6.57348 8.25502 4.88651C8.25502 3.19953 6.88745 1.83196 5.20047 1.83196ZM0.618652 4.88651C0.618652 2.35604 2.67 0.304688 5.20047 0.304688C7.73094 0.304688 9.78229 2.35604 9.78229 4.88651C9.78229 5.87605 9.46859 6.79233 8.93522 7.54131L12.6132 11.2193C12.9114 11.5175 12.9114 12.001 12.6132 12.2992C12.315 12.5974 11.8314 12.5974 11.5332 12.2992L7.85528 8.62126C7.10629 9.15463 6.19001 9.46832 5.20047 9.46832C2.67 9.46832 0.618652 7.41697 0.618652 4.88651Z" fill="#BDBDBD"/>
</svg>
