<svg width="97" height="27" viewBox="0 0 97 27" fill="none" xmlns="http://www.w3.org/2000/svg">
<path d="M0.334498 21.1777V1.60484H6.18509C8.15302 1.60484 9.82842 1.89737 11.2113 2.48243C12.5942 3.06749 13.7022 3.84757 14.5355 4.82267C15.3865 5.79776 16.007 6.8881 16.397 8.09368C16.7871 9.29926 16.9821 10.5137 16.9821 11.737C16.9821 13.1908 16.7162 14.5027 16.1843 15.6729C15.6701 16.8252 14.961 17.8181 14.0568 18.6513C13.1526 19.4669 12.1066 20.0963 10.9188 20.5395C9.73091 20.965 8.47214 21.1777 7.14246 21.1777H0.334498ZM4.19057 17.4546H6.47762C7.45272 17.4546 8.33917 17.3305 9.13698 17.0823C9.93479 16.8164 10.6174 16.4352 11.1847 15.9388C11.7697 15.4424 12.213 14.8219 12.5144 14.0772C12.8335 13.3149 12.9931 12.4462 12.9931 11.4711C12.9931 10.1946 12.7803 9.15742 12.3548 8.35962C11.947 7.54408 11.4329 6.9147 10.8124 6.47147C10.2096 6.02824 9.58907 5.72685 8.95083 5.56729C8.31258 5.39 7.77184 5.30135 7.32862 5.30135H4.19057V17.4546ZM25.957 21.4969C24.5387 21.4969 23.3331 21.2309 22.3403 20.699C21.3652 20.1672 20.6206 19.4314 20.1064 18.4918C19.5923 17.5521 19.3352 16.4707 19.3352 15.2474C19.3352 14.0772 19.6366 13.0224 20.2394 12.0827C20.8422 11.1431 21.6489 10.3985 22.6594 9.84886C23.67 9.28153 24.7958 8.99786 26.0368 8.99786C27.7033 8.99786 29.0685 9.48541 30.1322 10.4605C31.2137 11.4179 31.914 12.8096 32.2331 14.6357L23.1913 17.5078L22.3669 15.4867L28.9089 13.2794L28.1377 13.6251C27.9959 13.1642 27.7388 12.7653 27.3665 12.4284C27.0119 12.0739 26.4712 11.8966 25.7443 11.8966C25.1947 11.8966 24.7071 12.0295 24.2816 12.2955C23.8739 12.5437 23.5547 12.9071 23.3243 13.3858C23.1115 13.8468 23.0051 14.3964 23.0051 15.0346C23.0051 15.7615 23.1381 16.3732 23.404 16.8696C23.67 17.3483 24.0334 17.7117 24.4944 17.9599C24.9553 18.2081 25.4695 18.3322 26.0368 18.3322C26.4446 18.3322 26.8346 18.2613 27.2069 18.1195C27.597 17.9776 27.9781 17.7915 28.3504 17.561L29.9993 20.3267C29.3787 20.6813 28.705 20.965 27.9781 21.1777C27.269 21.3905 26.5953 21.4969 25.957 21.4969ZM42.571 21.4969C41.5959 21.4969 40.7715 21.3373 40.0978 21.0182C39.4418 20.6813 38.8656 20.247 38.3692 19.7151L38.6617 18.9173V21.1777H34.9386V0.195378H38.6351V11.5508V10.3541C39.0961 9.9641 39.7077 9.63611 40.4701 9.37017C41.2324 9.10424 42.1011 8.97127 43.0762 8.97127C44.0868 8.97127 45.0087 9.21061 45.842 9.6893C46.6752 10.168 47.3401 10.8683 47.8365 11.7902C48.3506 12.6944 48.6077 13.8024 48.6077 15.1144C48.6077 16.4263 48.324 17.561 47.7567 18.5184C47.2071 19.4757 46.4714 20.2115 45.5494 20.7256C44.6275 21.2398 43.6347 21.4969 42.571 21.4969ZM41.7466 18.3588C42.2962 18.3588 42.8014 18.217 43.2624 17.9333C43.7411 17.6496 44.1223 17.2596 44.4059 16.7632C44.6896 16.2668 44.8314 15.7083 44.8314 15.0878C44.8314 14.4673 44.6896 13.9177 44.4059 13.439C44.1223 12.9603 43.7411 12.588 43.2624 12.3221C42.8014 12.0384 42.2962 11.8966 41.7466 11.8966C41.2679 11.8966 40.8158 11.9763 40.3903 12.1359C39.9825 12.2777 39.6279 12.4905 39.3265 12.7742C39.0429 13.0401 38.8213 13.3681 38.6617 13.7581V16.6036C38.8745 16.9937 39.1227 17.3217 39.4063 17.5876C39.7077 17.8358 40.0534 18.0308 40.4435 18.1727C40.8335 18.2968 41.2679 18.3588 41.7466 18.3588ZM58.8203 21.4969C58.1288 21.4969 57.4463 21.3728 56.7726 21.1245C56.1166 20.8586 55.567 20.4863 55.1238 20.0076L55.2301 18.9173V26.7624H51.5336V9.29039H54.7249L55.2567 11.5508L54.9642 10.753C55.567 10.2389 56.2407 9.8134 56.9853 9.47655C57.7299 9.13969 58.5898 8.97127 59.5649 8.97127C60.6464 8.97127 61.6126 9.22834 62.4636 9.74248C63.3146 10.2389 63.9794 10.9658 64.4581 11.9232C64.9545 12.8628 65.2027 13.9975 65.2027 15.3271C65.2027 16.6391 64.9279 17.756 64.3783 18.6779C63.8287 19.5998 63.0753 20.3001 62.1179 20.7788C61.1605 21.2575 60.0613 21.4969 58.8203 21.4969ZM58.0757 18.5716C58.6784 18.5716 59.2281 18.4386 59.7245 18.1727C60.2386 17.9067 60.6464 17.5344 60.9478 17.0557C61.2669 16.5593 61.4265 16.0008 61.4265 15.3803C61.4265 14.7244 61.2846 14.157 61.001 13.6783C60.735 13.1819 60.3627 12.8007 59.884 12.5348C59.4231 12.2511 58.9089 12.1093 58.3416 12.1093C57.8452 12.1093 57.402 12.1802 57.0119 12.3221C56.6396 12.4462 56.3028 12.6412 56.0014 12.9071C55.7177 13.1553 55.4695 13.4745 55.2567 13.8645V16.71C55.3986 17.0823 55.6025 17.4103 55.8684 17.694C56.1343 17.9776 56.4534 18.1993 56.8258 18.3588C57.2158 18.5006 57.6324 18.5716 58.0757 18.5716ZM73.0219 21.4969C71.9404 21.4969 70.9565 21.2841 70.07 20.8586C69.2013 20.4154 68.5098 19.7417 67.9957 18.8375C67.4816 17.9333 67.2245 16.7809 67.2245 15.3803C67.2245 14.0684 67.4904 12.9337 68.0223 11.9763C68.5542 11.019 69.2545 10.2832 70.1232 9.76908C70.9919 9.2372 71.9138 8.97127 72.8889 8.97127C74.0413 8.97127 74.91 9.16629 75.4951 9.55633C76.0979 9.92864 76.5943 10.3453 76.9843 10.8062L76.8248 11.2583L77.1705 9.55633H80.6277V21.1777H76.9046V18.6513L77.1971 19.4491C77.1616 19.4491 77.0553 19.5555 76.878 19.7683C76.7007 19.9633 76.4347 20.2026 76.0802 20.4863C75.7433 20.7522 75.3178 20.9827 74.8037 21.1777C74.3072 21.3905 73.7133 21.4969 73.0219 21.4969ZM74.0856 18.4652C74.5289 18.4652 74.9278 18.4031 75.2823 18.279C75.6369 18.1372 75.9472 17.9422 76.2131 17.694C76.4791 17.428 76.7095 17.1 76.9046 16.71V13.8645C76.7627 13.4745 76.55 13.1465 76.2663 12.8805C75.9826 12.5969 75.6458 12.3841 75.2558 12.2423C74.8657 12.0827 74.4314 12.0029 73.9527 12.0029C73.4208 12.0029 72.9244 12.1448 72.4634 12.4284C72.0202 12.6944 71.6656 13.0667 71.3997 13.5454C71.1337 14.0241 71.0008 14.5737 71.0008 15.1942C71.0008 15.8147 71.1426 16.3732 71.4263 16.8696C71.7099 17.366 72.0823 17.756 72.5432 18.0397C73.0219 18.3234 73.536 18.4652 74.0856 18.4652ZM85.3948 26.7624L93.1335 9.55633H96.4843L88.9849 26.7624H85.3948ZM88.5062 21.2309L82.8152 9.55633H86.9904L91.3783 19.3694L88.5062 21.2309Z" fill="#007EA7"/>
</svg>
