<svg width="22" height="24" viewBox="0 0 22 24" fill="none" xmlns="http://www.w3.org/2000/svg">
<path fill-rule="evenodd" clip-rule="evenodd" d="M7.52152 3.4424C7.71576 1.69325 9.19902 0.333008 11 0.333008C12.8009 0.333008 14.2842 1.69325 14.4784 3.4424C17.2479 4.74813 19.1666 7.56523 19.1666 10.833V14.5179C19.1666 14.8371 19.2935 15.1432 19.5192 15.369L21.1583 17.0081C21.4919 17.3417 21.5917 17.8435 21.4112 18.2795C21.2306 18.7154 20.8052 18.9997 20.3333 18.9997L15.6666 18.9997C15.6666 21.577 13.5773 23.6663 11 23.6663C8.42264 23.6663 6.33331 21.577 6.33331 18.9997L1.66664 18.9997C1.19477 18.9997 0.769358 18.7154 0.58878 18.2795C0.408202 17.8435 0.508017 17.3417 0.841682 17.0081L2.48077 15.369C2.70649 15.1432 2.83331 14.8371 2.83331 14.5179V10.833C2.83331 7.56523 4.75202 4.74813 7.52152 3.4424ZM8.66664 18.9997C8.66664 20.2883 9.71131 21.333 11 21.333C12.2886 21.333 13.3333 20.2883 13.3333 18.9997H8.66664ZM11 2.66634C10.3556 2.66634 9.83331 3.18868 9.83331 3.83301V4.23133C9.83331 4.72578 9.52162 5.16653 9.05543 5.33131C6.7882 6.13265 5.16664 8.29496 5.16664 10.833V14.5179C5.16664 15.2987 4.90845 16.0529 4.43935 16.6663H17.5606C17.0915 16.0529 16.8333 15.2987 16.8333 14.5179V10.833C16.8333 8.29496 15.2117 6.13265 12.9445 5.33131C12.4783 5.16653 12.1666 4.72578 12.1666 4.23133V3.83301C12.1666 3.18868 11.6443 2.66634 11 2.66634Z" fill="#BDBDBD"/>
</svg>
