<svg width="24" height="24" viewBox="0 0 24 24" fill="none" xmlns="http://www.w3.org/2000/svg">
<path fill-rule="evenodd" clip-rule="evenodd" d="M0 4C0 1.79086 1.79086 0 4 0H6.66667C8.87581 0 10.6667 1.79086 10.6667 4V6.66667C10.6667 8.87581 8.87581 10.6667 6.66667 10.6667H4C1.79086 10.6667 0 8.87581 0 6.66667V4ZM4 2.66667C3.26362 2.66667 2.66667 3.26362 2.66667 4V6.66667C2.66667 7.40305 3.26362 8 4 8H6.66667C7.40305 8 8 7.40305 8 6.66667V4C8 3.26362 7.40305 2.66667 6.66667 2.66667H4ZM13.3333 4C13.3333 1.79086 15.1242 0 17.3333 0H20C22.2091 0 24 1.79086 24 4V6.66667C24 8.87581 22.2091 10.6667 20 10.6667H17.3333C15.1242 10.6667 13.3333 8.87581 13.3333 6.66667V4ZM17.3333 2.66667C16.597 2.66667 16 3.26362 16 4V6.66667C16 7.40305 16.597 8 17.3333 8H20C20.7364 8 21.3333 7.40305 21.3333 6.66667V4C21.3333 3.26362 20.7364 2.66667 20 2.66667H17.3333ZM0 17.3333C0 15.1242 1.79086 13.3333 4 13.3333H6.66667C8.87581 13.3333 10.6667 15.1242 10.6667 17.3333V20C10.6667 22.2091 8.87581 24 6.66667 24H4C1.79086 24 0 22.2091 0 20V17.3333ZM4 16C3.26362 16 2.66667 16.597 2.66667 17.3333V20C2.66667 20.7364 3.26362 21.3333 4 21.3333H6.66667C7.40305 21.3333 8 20.7364 8 20V17.3333C8 16.597 7.40305 16 6.66667 16H4ZM13.3333 17.3333C13.3333 15.1242 15.1242 13.3333 17.3333 13.3333H20C22.2091 13.3333 24 15.1242 24 17.3333V20C24 22.2091 22.2091 24 20 24H17.3333C15.1242 24 13.3333 22.2091 13.3333 20V17.3333ZM17.3333 16C16.597 16 16 16.597 16 17.3333V20C16 20.7364 16.597 21.3333 17.3333 21.3333H20C20.7364 21.3333 21.3333 20.7364 21.3333 20V17.3333C21.3333 16.597 20.7364 16 20 16H17.3333Z" fill="#BDBDBD"/>
</svg>
