<svg width="4" height="18" viewBox="0 0 4 18" fill="none" xmlns="http://www.w3.org/2000/svg">
<path fill-rule="evenodd" clip-rule="evenodd" d="M1.99998 0.75C3.0125 0.75 3.83331 1.57081 3.83331 2.58333C3.83331 3.59586 3.0125 4.41667 1.99998 4.41667C0.987458 4.41667 0.166647 3.59586 0.166647 2.58333C0.166647 1.57081 0.987458 0.75 1.99998 0.75ZM1.99998 7.16667C3.0125 7.16667 3.83331 7.98748 3.83331 9C3.83331 10.0125 3.0125 10.8333 1.99998 10.8333C0.987458 10.8333 0.166646 10.0125 0.166646 9C0.166646 7.98748 0.987458 7.16667 1.99998 7.16667ZM1.99998 13.5833C3.0125 13.5833 3.83331 14.4041 3.83331 15.4167C3.83331 16.4292 3.0125 17.25 1.99998 17.25C0.987457 17.25 0.166646 16.4292 0.166646 15.4167C0.166646 14.4041 0.987457 13.5833 1.99998 13.5833Z" fill="#BDBDBD"/>
</svg>
