<svg width="24" height="24" viewBox="0 0 24 24" fill="none" xmlns="http://www.w3.org/2000/svg">
<path fill-rule="evenodd" clip-rule="evenodd" d="M9.19981 3.5998C6.10701 3.5998 3.5998 6.10701 3.5998 9.19981C3.5998 12.2926 6.10701 14.7998 9.19981 14.7998C12.2926 14.7998 14.7998 12.2926 14.7998 9.19981C14.7998 6.10701 12.2926 3.5998 9.19981 3.5998ZM0.799805 9.19981C0.799805 4.56061 4.56061 0.799805 9.19981 0.799805C13.839 0.799805 17.5998 4.56061 17.5998 9.19981C17.5998 11.014 17.0247 12.6938 16.0469 14.067L22.7898 20.8099C23.3365 21.3566 23.3365 22.243 22.7898 22.7898C22.243 23.3365 21.3566 23.3365 20.8099 22.7898L14.067 16.0469C12.6938 17.0247 11.014 17.5998 9.19981 17.5998C4.56061 17.5998 0.799805 13.839 0.799805 9.19981Z" fill="#BDBDBD"/>
</svg>
