<svg width="30" height="24" viewBox="0 0 30 24" fill="none" xmlns="http://www.w3.org/2000/svg">
<path fill-rule="evenodd" clip-rule="evenodd" d="M15.0002 2.66667C13.5274 2.66667 12.3335 3.86057 12.3335 5.33333C12.3335 6.80609 13.5274 8 15.0002 8C16.4729 8 17.6668 6.80609 17.6668 5.33333C17.6668 3.86057 16.4729 2.66667 15.0002 2.66667ZM9.66683 5.33333C9.66683 2.38781 12.0546 0 15.0002 0C17.9457 0 20.3335 2.38781 20.3335 5.33333C20.3335 8.27885 17.9457 10.6667 15.0002 10.6667C12.0546 10.6667 9.66683 8.27885 9.66683 5.33333ZM5.66683 8C4.93045 8 4.3335 8.59695 4.3335 9.33333C4.3335 10.0697 4.93045 10.6667 5.66683 10.6667C6.40321 10.6667 7.00016 10.0697 7.00016 9.33333C7.00016 8.59695 6.40321 8 5.66683 8ZM1.66683 9.33333C1.66683 7.12419 3.45769 5.33333 5.66683 5.33333C7.87597 5.33333 9.66683 7.12419 9.66683 9.33333C9.66683 11.5425 7.87597 13.3333 5.66683 13.3333C3.45769 13.3333 1.66683 11.5425 1.66683 9.33333ZM24.3335 8C23.5971 8 23.0002 8.59695 23.0002 9.33333C23.0002 10.0697 23.5971 10.6667 24.3335 10.6667C25.0699 10.6667 25.6668 10.0697 25.6668 9.33333C25.6668 8.59695 25.0699 8 24.3335 8ZM20.3335 9.33333C20.3335 7.12419 22.1244 5.33333 24.3335 5.33333C26.5426 5.33333 28.3335 7.12419 28.3335 9.33333C28.3335 11.5425 26.5426 13.3333 24.3335 13.3333C22.1244 13.3333 20.3335 11.5425 20.3335 9.33333ZM15.0002 14.6667C12.7567 14.6667 10.8337 16.0523 10.0463 18.0193C9.80193 18.6299 9.66683 19.2976 9.66683 20V21.3333H20.3335V20C20.3335 19.2976 20.1984 18.6299 19.954 18.0193C19.1666 16.0523 17.2436 14.6667 15.0002 14.6667ZM23.0002 21.3333H27.0002V20C27.0002 18.5272 25.8063 17.3333 24.3335 17.3333C23.7254 17.3333 23.1651 17.5361 22.7158 17.8797C22.9013 18.556 23.0002 19.2673 23.0002 20V21.3333ZM21.5717 15.4369C20.1274 13.3608 17.7238 12 15.0002 12C12.2766 12 9.87289 13.3608 8.42867 15.4369C7.62338 14.9485 6.67789 14.6667 5.66683 14.6667C2.72131 14.6667 0.333496 17.0545 0.333496 20V22.6667C0.333496 23.403 0.93045 24 1.66683 24H28.3335C29.0699 24 29.6668 23.403 29.6668 22.6667V20C29.6668 17.0545 27.279 14.6667 24.3335 14.6667C23.3224 14.6667 22.3769 14.9485 21.5717 15.4369ZM7.28453 17.8797C6.83525 17.5361 6.27492 17.3333 5.66683 17.3333C4.19407 17.3333 3.00016 18.5272 3.00016 20V21.3333H7.00016V20C7.00016 19.2673 7.09902 18.556 7.28453 17.8797Z" fill="#007EA7"/>
</svg>
