<svg width="96" height="96" viewBox="0 0 96 96" fill="none" xmlns="http://www.w3.org/2000/svg">
<path d="M73 48C73 61.2547 62.2547 72 49 72C35.7453 72 25 61.2547 25 48C25 34.7453 35.7453 24 49 24C62.2547 24 73 34.7453 73 48Z" fill="#FFCC4D"/>
<path d="M56.3133 62.505C56.2986 62.4463 54.7866 56.6663 49 56.6663C43.2133 56.6663 41.7013 62.4463 41.6866 62.505C41.616 62.789 41.7453 63.0797 41.996 63.2303C42.2466 63.3797 42.5733 63.345 42.7906 63.1503C42.8026 63.1397 44.1413 61.9997 49 61.9997C53.7866 61.9997 55.156 63.1063 55.208 63.1503C55.3346 63.2703 55.5 63.333 55.6666 63.333C55.7786 63.333 55.892 63.305 55.9946 63.2477C56.256 63.0983 56.3866 62.7957 56.3133 62.505ZM45.9373 47.4637C45.92 47.4757 44.2546 48.6663 41 48.6663C37.744 48.6663 36.08 47.4757 36.0666 47.4663C35.808 47.2717 35.4453 47.2903 35.208 47.5157C34.972 47.7383 34.9306 48.0997 35.112 48.3703C35.1933 48.4903 37.132 51.333 41 51.333C44.8666 51.333 46.8066 48.4903 46.888 48.369C47.0666 48.0997 47.0266 47.7423 46.7933 47.5183C46.5586 47.293 46.1946 47.273 45.9373 47.4637ZM62.7933 47.5197C62.56 47.2943 62.1973 47.2717 61.936 47.4637C61.92 47.4757 60.2533 48.6663 57 48.6663C53.7453 48.6663 52.08 47.4757 52.0666 47.4663C51.8093 47.2717 51.4453 47.2903 51.208 47.5157C50.972 47.7383 50.932 48.0997 51.112 48.3703C51.1933 48.4903 53.132 51.333 57 51.333C60.8666 51.333 62.8066 48.4903 62.888 48.369C63.068 48.101 63.0266 47.7437 62.7933 47.5197ZM66.3346 45.333C65.928 45.333 65.5293 45.149 65.2666 44.7997C61.7453 40.105 57.1853 40.001 56.992 39.9997C56.2586 39.9917 55.6666 39.3917 55.6706 38.6597C55.6746 37.925 56.2666 37.333 57 37.333C57.2453 37.333 63.0493 37.3997 67.4 43.1997C67.8426 43.789 67.7226 44.625 67.1333 45.0663C66.8933 45.2463 66.6133 45.333 66.3346 45.333ZM31.6653 45.333C31.388 45.333 31.1066 45.2463 30.8666 45.0663C30.2773 44.625 30.1586 43.789 30.6 43.1997C34.9493 37.3997 40.7546 37.333 41 37.333C41.736 37.333 42.3333 37.9303 42.3333 38.6663C42.3333 39.401 41.74 39.997 41.0053 39.9997C40.7973 40.0023 36.2466 40.1143 32.732 44.7997C32.472 45.149 32.0706 45.333 31.6653 45.333Z" fill="#664500"/>
<path d="M55.6666 54.667C63.948 54.667 73 60.0003 73 66.667C73 72.0003 69 72.0003 69 72.0003C58.3333 72.0003 67.6666 60.0003 55.6666 54.667Z" fill="#5DADEC"/>
</svg>
