<svg width="17" height="16" viewBox="0 0 17 16" fill="none" xmlns="http://www.w3.org/2000/svg">
<path d="M15.6076 1.20476e-06H1.43197C1.18195 -0.000474698 0.952739 0.140075 0.838449 0.363906C0.722582 0.590752 0.742918 0.863919 0.890944 1.07109L6.0843 8.43295C6.08604 8.43549 6.08793 8.43787 6.08966 8.44041C6.27836 8.69676 6.38035 9.00721 6.38099 9.32638V15.3284C6.37988 15.5063 6.44924 15.677 6.57378 15.8031C6.69832 15.9292 6.86763 15.9999 7.04419 15.9999C7.13404 15.9999 7.22279 15.9818 7.30571 15.9473L10.224 14.8275C10.4855 14.7472 10.6591 14.4989 10.6591 14.1999V9.32638C10.6595 9.00737 10.7617 8.69676 10.9502 8.44041C10.952 8.43787 10.9539 8.43549 10.9556 8.43295L16.1488 1.07078C16.2968 0.86376 16.3172 0.590752 16.2013 0.363906C16.087 0.140075 15.8578 -0.000474698 15.6076 1.20476e-06ZM10.2995 7.95928C10.0094 8.35538 9.85258 8.8343 9.85163 9.32638V14.1012L7.18811 15.1232V9.32638C7.18717 8.8343 7.03031 8.35538 6.74009 7.95928L1.69823 0.812204H15.3415L10.2995 7.95928Z" fill="white"/>
</svg>
