<svg width="96" height="96" viewBox="0 0 96 96" fill="none" xmlns="http://www.w3.org/2000/svg">
<path d="M40.4131 32.3389C40.255 32.4971 40.135 32.6877 40.0347 32.8966L40.0234 32.8853L24.1891 68.5549L24.2046 68.5705C23.911 69.1394 24.4023 70.2971 25.4088 71.3051C26.4154 72.3117 27.5731 72.8029 28.142 72.5093L28.1561 72.5234L63.8258 56.6877L63.8145 56.6749C64.022 56.5761 64.2126 56.4561 64.3721 56.2952C66.5773 54.09 63.0013 46.9394 56.3872 40.3239C49.7703 33.7084 42.6197 30.1338 40.4131 32.3389V32.3389Z" fill="#DD2E44"/>
<path d="M42.3528 38.709L24.5872 67.6586L24.1891 68.5551L24.2046 68.5706C23.911 69.1396 24.4023 70.2972 25.4088 71.3052C25.7364 71.6327 26.0766 71.8812 26.4098 72.0916L47.9999 45.7678L42.3528 38.709Z" fill="#EA596E"/>
<path d="M56.4876 40.2136C63.0805 46.8094 66.7412 53.84 64.6603 55.9181C62.5807 57.9991 55.5501 54.3398 48.953 47.7468C42.3586 41.1511 38.6993 34.1176 40.7788 32.0381C42.8598 29.9586 49.8904 33.6179 56.4876 40.2136Z" fill="#A0041E"/>
<path d="M50.2448 40.9804C49.9638 41.2077 49.5968 41.3262 49.2085 41.2839C47.9831 41.1512 46.9525 40.7248 46.2311 40.0514C45.4674 39.3385 45.0904 38.3813 45.1935 37.4227C45.3742 35.7399 47.0626 34.1954 49.9412 34.506C51.0608 34.626 51.5605 34.266 51.5775 34.0938C51.5972 33.9229 51.1864 33.4641 50.0669 33.3427C48.8415 33.21 47.8109 32.7837 47.0881 32.1102C46.3243 31.3973 45.9459 30.4401 46.0504 29.4815C46.2339 27.7987 47.921 26.2542 50.7968 26.5662C51.6128 26.6538 52.0434 26.4858 52.2255 26.3771C52.3709 26.2881 52.4288 26.2034 52.4344 26.154C52.4514 25.9832 52.0462 25.5244 50.9238 25.4029C50.1488 25.3182 49.5869 24.6237 49.673 23.8472C49.7563 23.0721 50.4495 22.5117 51.2274 22.5964C54.1031 22.9055 55.4245 24.7733 55.2424 26.4575C55.0589 28.1432 53.3718 29.6848 50.4932 29.3757C49.6772 29.2867 49.2509 29.4561 49.0674 29.5648C48.9219 29.6524 48.8626 29.7385 48.857 29.7865C48.8386 29.9587 49.2466 30.4161 50.369 30.5375C53.2448 30.8481 54.5662 32.7145 54.3841 34.3987C54.2019 36.0815 52.5149 37.626 49.6377 37.314C48.8217 37.2265 48.3925 37.3959 48.209 37.5032C48.0622 37.5935 48.0057 37.6782 48.0001 37.7262C47.9817 37.8971 48.3897 38.3559 49.5106 38.4773C50.2843 38.562 50.8476 39.258 50.7615 40.0331C50.7219 40.4199 50.5257 40.7545 50.2448 40.9804V40.9804Z" fill="#AA8DD8"/>
<path d="M67.2862 54.0362C70.0716 53.2498 71.9931 54.4922 72.4505 56.1227C72.9079 57.7519 71.9168 59.8145 69.1328 60.598C68.0458 60.903 67.7196 61.4225 67.7634 61.5877C67.8114 61.7543 68.3634 62.0282 69.4476 61.7218C72.2316 60.9383 74.1531 62.1806 74.6105 63.8098C75.0707 65.4404 74.0768 67.5002 71.2914 68.2851C70.2058 68.59 69.8782 69.111 69.9262 69.2762C69.9728 69.4413 70.5234 69.7152 71.6091 69.4103C72.3573 69.1999 73.1394 69.6362 73.3498 70.3858C73.5587 71.1369 73.1225 71.9162 72.3714 72.1279C69.5888 72.9115 67.666 71.6719 67.2058 70.0399C66.7484 68.4108 67.7408 66.351 70.5276 65.566C71.6147 65.2597 71.9408 64.7416 71.8928 64.575C71.8476 64.4098 71.2971 64.1345 70.2128 64.4395C67.426 65.2244 65.506 63.9849 65.0472 62.3515C64.5884 60.7223 65.5808 58.6625 68.3662 57.8762C69.4505 57.5726 69.7766 57.0503 69.7314 56.8865C69.6834 56.7199 69.1342 56.446 68.0486 56.751C67.2975 56.9628 66.5196 56.5251 66.3079 55.7755C66.0975 55.0272 66.5352 54.2479 67.2862 54.0362V54.0362Z" fill="#77B255"/>
<path d="M56.472 50.2284C56.057 50.2284 55.6476 50.0463 55.368 49.699C54.881 49.0891 54.9812 48.2011 55.5883 47.7141C55.896 47.467 63.2372 41.7014 73.6123 43.1851C74.3845 43.2952 74.921 44.0096 74.8109 44.7818C74.7007 45.5527 73.992 46.0948 73.2127 45.979C64.0461 44.6774 57.4193 49.867 57.3544 49.9192C57.0918 50.1282 56.7812 50.2284 56.472 50.2284V50.2284Z" fill="#AA8DD8"/>
<path d="M32.1234 44.3563C31.9892 44.3563 31.8523 44.3366 31.7168 44.2971C30.9699 44.0726 30.5464 43.2862 30.7709 42.5394C32.3704 37.2128 33.8203 28.7126 32.0386 26.4961C31.8396 26.2448 31.5389 25.9978 30.8499 26.05C29.5257 26.1516 29.6514 28.9455 29.6528 28.9738C29.7121 29.7516 29.1276 30.4293 28.3511 30.4872C27.5619 30.5352 26.8956 29.962 26.8377 29.1841C26.6923 27.2373 27.2979 23.4876 30.6382 23.2349C32.129 23.122 33.3671 23.6401 34.241 24.7272C37.5883 28.8933 34.1902 40.9709 33.4758 43.3512C33.2923 43.9625 32.7304 44.3563 32.1234 44.3563Z" fill="#77B255"/>
<path d="M60 37.2968C61.1695 37.2968 62.1176 36.3487 62.1176 35.1792C62.1176 34.0096 61.1695 33.0615 60 33.0615C58.8304 33.0615 57.8823 34.0096 57.8823 35.1792C57.8823 36.3487 58.8304 37.2968 60 37.2968Z" fill="#5C913B"/>
<path d="M26.8235 50.0025C28.3829 50.0025 29.6471 48.7384 29.6471 47.179C29.6471 45.6196 28.3829 44.3555 26.8235 44.3555C25.2641 44.3555 24 45.6196 24 47.179C24 48.7384 25.2641 50.0025 26.8235 50.0025Z" fill="#9266CC"/>
<path d="M69.8823 51.415C71.0518 51.415 71.9999 50.4669 71.9999 49.2973C71.9999 48.1278 71.0518 47.1797 69.8823 47.1797C68.7128 47.1797 67.7646 48.1278 67.7646 49.2973C67.7646 50.4669 68.7128 51.415 69.8823 51.415Z" fill="#5C913B"/>
<path d="M57.1765 68.3554C58.346 68.3554 59.2941 67.4073 59.2941 66.2378C59.2941 65.0682 58.346 64.1201 57.1765 64.1201C56.0069 64.1201 55.0588 65.0682 55.0588 66.2378C55.0588 67.4073 56.0069 68.3554 57.1765 68.3554Z" fill="#5C913B"/>
<path d="M63.5293 30.2379C65.0887 30.2379 66.3529 28.9737 66.3529 27.4143C66.3529 25.855 65.0887 24.5908 63.5293 24.5908C61.9699 24.5908 60.7058 25.855 60.7058 27.4143C60.7058 28.9737 61.9699 30.2379 63.5293 30.2379Z" fill="#FFCC4D"/>
<path d="M69.8823 35.8857C71.0518 35.8857 71.9999 34.9376 71.9999 33.768C71.9999 32.5985 71.0518 31.6504 69.8823 31.6504C68.7128 31.6504 67.7646 32.5985 67.7646 33.768C67.7646 34.9376 68.7128 35.8857 69.8823 35.8857Z" fill="#FFCC4D"/>
<path d="M65.6469 41.5322C66.8165 41.5322 67.7646 40.5841 67.7646 39.4145C67.7646 38.245 66.8165 37.2969 65.6469 37.2969C64.4774 37.2969 63.5293 38.245 63.5293 39.4145C63.5293 40.5841 64.4774 41.5322 65.6469 41.5322Z" fill="#FFCC4D"/>
<path d="M34.5884 57.0615C35.7579 57.0615 36.706 56.1134 36.706 54.9438C36.706 53.7743 35.7579 52.8262 34.5884 52.8262C33.4188 52.8262 32.4707 53.7743 32.4707 54.9438C32.4707 56.1134 33.4188 57.0615 34.5884 57.0615Z" fill="#FFCC4D"/>
</svg>
