<svg width="24" height="20" viewBox="0 0 24 20" fill="none" xmlns="http://www.w3.org/2000/svg">
<path fill-rule="evenodd" clip-rule="evenodd" d="M0 2.00033C0 1.26395 0.596954 0.666992 1.33333 0.666992H22.6667C23.403 0.666992 24 1.26395 24 2.00033C24 2.73671 23.403 3.33366 22.6667 3.33366H1.33333C0.596954 3.33366 0 2.73671 0 2.00033ZM0 10.0003C0 9.26395 0.596954 8.66699 1.33333 8.66699H22.6667C23.403 8.66699 24 9.26395 24 10.0003C24 10.7367 23.403 11.3337 22.6667 11.3337H1.33333C0.596954 11.3337 0 10.7367 0 10.0003ZM0 18.0003C0 17.2639 0.596954 16.667 1.33333 16.667H22.6667C23.403 16.667 24 17.2639 24 18.0003C24 18.7367 23.403 19.3337 22.6667 19.3337H1.33333C0.596954 19.3337 0 18.7367 0 18.0003Z" fill="#BDBDBD"/>
</svg>
