<svg width="20" height="18" viewBox="0 0 20 18" fill="none" xmlns="http://www.w3.org/2000/svg">
<path fill-rule="evenodd" clip-rule="evenodd" d="M4 2C2.89543 2 2 2.89543 2 4V14C2 15.1046 2.89543 16 4 16H8C9.10457 16 10 15.1046 10 14V13C10 12.4477 10.4477 12 11 12C11.5523 12 12 12.4477 12 13V14C12 16.2091 10.2091 18 8 18H4C1.79086 18 0 16.2091 0 14V4C0 1.79086 1.79086 0 4 0H8C10.2091 0 12 1.79086 12 4V5C12 5.55228 11.5523 6 11 6C10.4477 6 10 5.55228 10 5V4C10 2.89543 9.10457 2 8 2H4ZM14.2929 4.29289C14.6834 3.90237 15.3166 3.90237 15.7071 4.29289L19.7071 8.29289C20.0976 8.68342 20.0976 9.31658 19.7071 9.70711L15.7071 13.7071C15.3166 14.0976 14.6834 14.0976 14.2929 13.7071C13.9024 13.3166 13.9024 12.6834 14.2929 12.2929L16.5858 10L5 10C4.44772 10 4 9.55228 4 9C4 8.44771 4.44772 8 5 8L16.5858 8L14.2929 5.70711C13.9024 5.31658 13.9024 4.68342 14.2929 4.29289Z" fill="#828282"/>
</svg>
