<svg width="28" height="22" viewBox="0 0 28 22" fill="none" xmlns="http://www.w3.org/2000/svg">
<path fill-rule="evenodd" clip-rule="evenodd" d="M4.6665 2.99967C3.93012 2.99967 3.33317 3.59663 3.33317 4.33301V17.6663C3.33317 18.4027 3.93012 18.9997 4.6665 18.9997H23.3332C24.0696 18.9997 24.6665 18.4027 24.6665 17.6663V6.99967C24.6665 6.26329 24.0696 5.66634 23.3332 5.66634H15.3332C14.9795 5.66634 14.6404 5.52587 14.3904 5.27582L12.1142 2.99967H4.6665ZM0.666504 4.33301C0.666504 2.12387 2.45737 0.333008 4.6665 0.333008H12.6665C13.0201 0.333008 13.3593 0.473484 13.6093 0.723532L15.8855 2.99967H23.3332C25.5423 2.99967 27.3332 4.79054 27.3332 6.99967V17.6663C27.3332 19.8755 25.5423 21.6663 23.3332 21.6663H4.6665C2.45736 21.6663 0.666504 19.8755 0.666504 17.6663V4.33301Z" fill="#BDBDBD"/>
</svg>
